<svg width="16" height="16" viewBox="0 0 16 16" fill="none" xmlns="http://www.w3.org/2000/svg">
<path d="M14.537 6.69433H14V6.66667H8V9.33333H11.7677C11.218 10.8857 9.741 12 8 12C5.791 12 4 10.209 4 8C4 5.791 5.791 4 8 4C9.01967 4 9.94733 4.38467 10.6537 5.013L12.5393 3.12733C11.3487 2.01767 9.756 1.33333 8 1.33333C4.31833 1.33333 1.33333 4.31833 1.33333 8C1.33333 11.6817 4.31833 14.6667 8 14.6667C11.6817 14.6667 14.6667 11.6817 14.6667 8C14.6667 7.553 14.6207 7.11667 14.537 6.69433Z" fill="#FFC107"/>
<path d="M2.102 4.897L4.29233 6.50333C4.885 5.036 6.32033 4 8 4C9.01967 4 9.94733 4.38467 10.6537 5.013L12.5393 3.12733C11.3487 2.01767 9.756 1.33333 8 1.33333C5.43933 1.33333 3.21867 2.779 2.102 4.897Z" fill="#FF3D00"/>
<path d="M8 14.6667C9.722 14.6667 11.2867 14.0077 12.4697 12.936L10.4063 11.19C9.71452 11.7161 8.86915 12.0007 8 12C6.266 12 4.79367 10.8943 4.239 9.35133L2.065 11.0263C3.16833 13.1853 5.409 14.6667 8 14.6667Z" fill="#4CAF50"/>
<path d="M14.537 6.69433H14V6.66667H8V9.33333H11.7677C11.5047 10.0721 11.0311 10.7177 10.4053 11.1903L10.4063 11.1897L12.4697 12.9357C12.3237 13.0683 14.6667 11.3333 14.6667 8C14.6667 7.553 14.6207 7.11667 14.537 6.69433Z" fill="#1976D2"/>
</svg>
